<svg id="图层_1" data-name="图层 1" xmlns="http://www.w3.org/2000/svg" viewBox="0 0 1920 1080"><path d="M540.31,94.69H490.58V25.37h302.9c301.39,1.51,302.9,1.51,322.49,4.52,52.75,9,93.43,21.1,132.61,43.7,55.76,31.65,99.46,76.86,122.07,126.59,12.06,27.12,18.08,57.26,18.08,82.88,0,102.48-90.41,195.91-223,229.06l-15.07,4.52c137.14,16.58,250.16,96.45,277.28,220,1.51,9,1.51,22.6,1.51,36.17,0,16.57,0,34.66-3,46.71-25.62,117.55-131.11,209.47-271.26,230.57-19.59,3-21.09,3-342.08,4.52H490.58V985.31h49.73c85.9-1.51,87.4-4.52,105.49-22.6V117.29C627.71,99.21,626.21,96.2,540.31,94.69Zm535,1.51c-6,0-64.8-1.51-125.08-1.51S831.15,96.2,822.11,96.2c-13.56,1.5-21.09,6-24.11,12-3,4.52-4.52,9-4.52,194.4V491H918.56l126.58-1.5,15.07-3c7.54-3,19.59-6,24.11-7.53,75.35-27.13,134.13-98,134.13-197.42C1218.45,186.62,1159.67,112.77,1075.28,96.2Zm21.1,452.09-152.2-1.51H793.48V753.24c0,146.17,0,209.47,1.51,212.48a32.21,32.21,0,0,0,6,10.55c9,7.53,10.54,7.53,150.69,7.53h73.84c66.31,0,67.82-1.5,90.42-9,85.9-28.63,141.66-110,141.66-203.44C1257.63,653.78,1188.31,569.39,1096.38,548.29Z"/></svg>