<?xml version="1.0" standalone="no"?><!DOCTYPE svg PUBLIC "-//W3C//DTD SVG 1.1//EN" "http://www.w3.org/Graphics/SVG/1.1/DTD/svg11.dtd"><svg class="icon" width="400px" height="400.00px" viewBox="0 0 1024 1024" version="1.1" xmlns="http://www.w3.org/2000/svg"><path fill="#000000" d="M494.918 461.875L330.855 235.801c-25.39-35.482-46.06-58.675-62.011-69.58-15.95-10.905-34.83-16.358-56.64-16.358h-9.278v-20.02H499.8v20.02h-8.79c-22.46 0-38.573 2.035-48.34 6.104-9.765 4.069-14.648 10.823-14.648 20.263 0 4.558 1.14 9.44 3.418 14.649 2.28 5.208 6.836 12.532 13.672 21.973L562.79 378.867 679 234.824c8.79-11.068 15.788-21.891 20.996-32.47 5.208-10.58 7.813-18.962 7.813-25.147 0-9.44-5.046-16.195-15.137-20.264-10.091-4.069-27.995-6.429-53.711-7.08v-20.02h242.187v20.02h-12.207c-23.112 0-43.294 4.802-60.546 14.405-17.253 9.602-38.086 29.215-62.5 58.837L586.227 415l195.8 277.832c18.555 26.693 36.54 45.736 53.955 57.129 17.416 11.393 38.168 18.066 62.256 20.02V790H595.992v-20.02h4.883c50.13-3.906 75.195-14.973 75.195-33.203 0-5.208-2.441-12.45-7.324-21.728-4.883-9.278-12.858-21.566-23.926-36.865L520.797 498.008 383.102 666.953c-16.277 20.183-27.181 35.4-32.715 45.654-5.534 10.254-8.301 19.45-8.301 27.588 0 10.417 4.883 17.823 14.648 22.217 9.766 4.395 28.483 6.917 56.153 7.568V790h-221.68v-20.02c18.555 0 34.75-3.824 48.584-11.474 13.835-7.65 32.633-25.798 56.397-54.443l198.73-242.188z"  /><path fill="#000000" d="M494.918 461.875L330.855 235.801c-25.39-35.482-46.06-58.675-62.011-69.58-15.95-10.905-34.83-16.358-56.64-16.358h-9.278v-20.02H499.8v20.02h-8.79c-22.46 0-38.573 2.035-48.34 6.104-9.765 4.069-14.648 10.823-14.648 20.263 0 4.558 1.14 9.44 3.418 14.649 2.28 5.208 6.836 12.532 13.672 21.973L562.79 378.867 679 234.824c8.79-11.068 15.788-21.891 20.996-32.47 5.208-10.58 7.813-18.962 7.813-25.147 0-9.44-5.046-16.195-15.137-20.264-10.091-4.069-27.995-6.429-53.711-7.08v-20.02h242.187v20.02h-12.207c-23.112 0-43.294 4.802-60.546 14.405-17.253 9.602-38.086 29.215-62.5 58.837L586.227 415l195.8 277.832c18.555 26.693 36.54 45.736 53.955 57.129 17.416 11.393 38.168 18.066 62.256 20.02V790H595.992v-20.02h4.883c50.13-3.906 75.195-14.973 75.195-33.203 0-5.208-2.441-12.45-7.324-21.728-4.883-9.278-12.858-21.566-23.926-36.865L520.797 498.008 383.102 666.953c-16.277 20.183-27.181 35.4-32.715 45.654-5.534 10.254-8.301 19.45-8.301 27.588 0 10.417 4.883 17.823 14.648 22.217 9.766 4.395 28.483 6.917 56.153 7.568V790h-221.68v-20.02c18.555 0 34.75-3.824 48.584-11.474 13.835-7.65 32.633-25.798 56.397-54.443l198.73-242.188z"  /></svg>