<?xml version="1.0" standalone="no"?><!DOCTYPE svg PUBLIC "-//W3C//DTD SVG 1.1//EN" "http://www.w3.org/Graphics/SVG/1.1/DTD/svg11.dtd"><svg class="icon" width="400px" height="400.00px" viewBox="0 0 1024 1024" version="1.1" xmlns="http://www.w3.org/2000/svg"><path fill="#000000" d="M257.91 242.242c0-35.482-5.615-58.838-16.846-70.068-11.23-11.23-34.911-17.66-71.044-19.287v-19.043h519.043l7.812 145.02h-25.879c-7.487-43.62-18.799-72.348-33.935-86.182-15.137-13.835-43.539-20.752-85.206-20.752H400c-15.95 0-26.449 2.36-31.494 7.08-5.046 4.72-7.568 17.985-7.568 39.795V396.05c0 13.346 1.22 21.972 3.662 25.879 2.441 3.906 9.521 5.86 21.24 5.86h120.117c45.573 0 74.951-6.186 88.135-18.556 13.183-12.37 20.752-37.109 22.705-74.218h26.367v227.05h-26.367c-2.604-38.737-10.498-64.453-23.682-77.148-13.183-12.695-42.236-19.043-87.158-19.043H384.863c-9.765 0-16.194 1.628-19.287 4.883-3.092 3.255-4.639 12.044-4.639 26.367v196.777c0 25.066 2.605 41.179 7.813 48.34 5.208 7.162 15.625 10.742 31.25 10.742h140.137c54.687 0 93.668-7.975 116.943-23.925 23.275-15.951 46.305-51.92 69.092-107.91l21.973 11.718L701.758 794H170.02v-20.02c36.458-0.976 60.22-6.835 71.289-17.578 11.067-10.742 16.601-34.18 16.601-70.312V242.242z"  /></svg>