<?xml version="1.0" standalone="no"?><!DOCTYPE svg PUBLIC "-//W3C//DTD SVG 1.1//EN" "http://www.w3.org/Graphics/SVG/1.1/DTD/svg11.dtd"><svg class="icon" width="400px" height="400.00px" viewBox="0 0 1024 1024" version="1.1" xmlns="http://www.w3.org/2000/svg"><path fill="#000000" d="M260.863 246.242c0-34.505-5.778-57.617-17.334-69.336-11.556-11.719-35.4-18.066-71.533-19.043v-20.02h280.762v20.02c-36.459 1.628-60.384 7.975-71.778 19.043-11.393 11.068-17.09 34.18-17.09 69.336v164.551c0 12.37 1.547 20.508 4.64 24.414 3.092 3.906 9.52 5.86 19.286 5.86h257.325c7.487 0 12.532-2.36 15.136-7.08 2.605-4.72 3.907-13.428 3.907-26.124v-161.62c0-34.506-5.453-57.455-16.358-68.848-10.905-11.394-34.912-17.904-72.021-19.532v-20.02h280.273v20.02c-36.133 0.977-59.977 7.08-71.533 18.31-11.556 11.231-17.334 34.587-17.334 70.07v442.87c0 34.831 5.94 58.268 17.822 70.313 11.882 12.044 35.563 18.229 71.045 18.554V798H575.805v-20.02c36.133-0.65 59.895-6.754 71.289-18.31 11.393-11.556 17.09-34.75 17.09-69.58V508.937c0-12.37-1.302-20.426-3.907-24.17-2.604-3.743-7.65-5.615-15.136-5.615H386.84c-8.464 0-14.404 2.116-17.822 6.348-3.418 4.232-5.127 12.044-5.127 23.438v180.175c0 34.831 5.778 58.106 17.334 69.824 11.556 11.72 35.4 18.067 71.533 19.043V798H171.996v-20.02c36.459-0.65 60.384-6.754 71.777-18.31 11.394-11.556 17.09-35.075 17.09-70.557v-442.87z"  /><path fill="#000000" d="M260.863 246.242c0-34.505-5.778-57.617-17.334-69.336-11.556-11.719-35.4-18.066-71.533-19.043v-20.02h280.762v20.02c-36.459 1.628-60.384 7.975-71.778 19.043-11.393 11.068-17.09 34.18-17.09 69.336v164.551c0 12.37 1.547 20.508 4.64 24.414 3.092 3.906 9.52 5.86 19.286 5.86h257.325c7.487 0 12.532-2.36 15.136-7.08 2.605-4.72 3.907-13.428 3.907-26.124v-161.62c0-34.506-5.453-57.455-16.358-68.848-10.905-11.394-34.912-17.904-72.021-19.532v-20.02h280.273v20.02c-36.133 0.977-59.977 7.08-71.533 18.31-11.556 11.231-17.334 34.587-17.334 70.07v442.87c0 34.831 5.94 58.268 17.822 70.313 11.882 12.044 35.563 18.229 71.045 18.554V798H575.805v-20.02c36.133-0.65 59.895-6.754 71.289-18.31 11.393-11.556 17.09-34.75 17.09-69.58V508.937c0-12.37-1.302-20.426-3.907-24.17-2.604-3.743-7.65-5.615-15.136-5.615H386.84c-8.464 0-14.404 2.116-17.822 6.348-3.418 4.232-5.127 12.044-5.127 23.438v180.175c0 34.831 5.778 58.106 17.334 69.824 11.556 11.72 35.4 18.067 71.533 19.043V798H171.996v-20.02c36.459-0.65 60.384-6.754 71.777-18.31 11.394-11.556 17.09-35.075 17.09-70.557v-442.87z"  /></svg>