<?xml version="1.0" standalone="no"?><!DOCTYPE svg PUBLIC "-//W3C//DTD SVG 1.1//EN" "http://www.w3.org/Graphics/SVG/1.1/DTD/svg11.dtd"><svg class="icon" width="400px" height="400.00px" viewBox="0 0 1024 1024" version="1.1" xmlns="http://www.w3.org/2000/svg"><path fill="#000000" d="M307.906 683.066V246.055c0-38.737-6.429-64.21-19.287-76.416-12.858-12.207-38.655-18.8-77.392-19.776v-20.02h297.851v20.02c-38.737 0.977-64.778 7.731-78.125 20.264-13.346 12.533-20.02 37.842-20.02 75.928v201.172c9.44-0.651 19.532-5.697 30.274-15.137 1.302-1.628 2.279-2.604 2.93-2.93l166.992-164.062c19.857-19.857 34.993-36.947 45.41-51.27 10.417-14.323 15.625-25.228 15.625-32.715 0-10.09-5.045-17.496-15.137-22.217-10.09-4.72-27.832-7.73-53.222-9.033v-20.02h264.16v20.02c-31.25 0.977-59 7.162-83.252 18.555-24.252 11.393-52.49 32.877-84.717 64.453L512.984 415.977l294.922 291.015c23.438 23.112 43.539 39.388 60.303 48.828 16.764 9.44 33.773 14.16 51.025 14.16V790H609.176v-20.02h4.883c45.898-3.906 68.847-12.858 68.847-26.855 0-6.51-1.627-12.614-4.883-18.31-3.255-5.697-9.928-13.591-20.02-23.682L446.09 490.195c-7.162-7.487-12.289-11.881-15.381-13.183-3.092-1.302-7.406-1.953-12.94-1.953h-6.835v210.937c0 32.878 6.429 54.85 19.287 65.918 12.858 11.068 38.167 17.09 75.927 18.066V790H209.762v-20.02h5.37c35.157 0 59.408-6.347 72.755-19.043 13.346-12.695 20.02-35.318 20.02-67.87z"  /><path fill="#000000" d="M307.906 683.066V246.055c0-38.737-6.429-64.21-19.287-76.416-12.858-12.207-38.655-18.8-77.392-19.776v-20.02h297.851v20.02c-38.737 0.977-64.778 7.731-78.125 20.264-13.346 12.533-20.02 37.842-20.02 75.928v201.172c9.44-0.651 19.532-5.697 30.274-15.137 1.302-1.628 2.279-2.604 2.93-2.93l166.992-164.062c19.857-19.857 34.993-36.947 45.41-51.27 10.417-14.323 15.625-25.228 15.625-32.715 0-10.09-5.045-17.496-15.137-22.217-10.09-4.72-27.832-7.73-53.222-9.033v-20.02h264.16v20.02c-31.25 0.977-59 7.162-83.252 18.555-24.252 11.393-52.49 32.877-84.717 64.453L512.984 415.977l294.922 291.015c23.438 23.112 43.539 39.388 60.303 48.828 16.764 9.44 33.773 14.16 51.025 14.16V790H609.176v-20.02h4.883c45.898-3.906 68.847-12.858 68.847-26.855 0-6.51-1.627-12.614-4.883-18.31-3.255-5.697-9.928-13.591-20.02-23.682L446.09 490.195c-7.162-7.487-12.289-11.881-15.381-13.183-3.092-1.302-7.406-1.953-12.94-1.953h-6.835v210.937c0 32.878 6.429 54.85 19.287 65.918 12.858 11.068 38.167 17.09 75.927 18.066V790H209.762v-20.02h5.37c35.157 0 59.408-6.347 72.755-19.043 13.346-12.695 20.02-35.318 20.02-67.87z"  /></svg>