<?xml version="1.0" standalone="no"?><!DOCTYPE svg PUBLIC "-//W3C//DTD SVG 1.1//EN" "http://www.w3.org/Graphics/SVG/1.1/DTD/svg11.dtd"><svg class="icon" width="400px" height="400.00px" viewBox="0 0 1024 1024" version="1.1" xmlns="http://www.w3.org/2000/svg"><path fill="#000000" d="M185.164 236.914c0-43.294-5.615-70.312-16.846-81.055-11.23-10.742-34.749-17.74-70.556-20.996v-20.02h193.36L517.194 615.82l222.657-500.976H930.77v20.02c-36.133 0.976-60.14 6.835-72.022 17.577-11.882 10.743-17.822 37.272-17.822 79.59v425.781c0 40.04 5.534 65.43 16.601 76.172 11.068 10.743 35.482 17.741 73.243 20.996V775H649.03v-20.02c37.11-1.953 61.36-8.626 72.754-20.02 11.393-11.392 17.09-37.108 17.09-77.148V233.985L498.152 775H476.18L233.992 233.984v412.11c0 45.247 5.778 74.463 17.334 87.646 11.556 13.184 36.051 20.264 73.487 21.24V775H97.762v-20.02c34.18-0.325 57.291-8.219 69.336-23.681 12.044-15.462 18.066-45.817 18.066-91.065v-403.32z"  /><path fill="#000000" d="M185.164 236.914c0-43.294-5.615-70.312-16.846-81.055-11.23-10.742-34.749-17.74-70.556-20.996v-20.02h193.36L517.194 615.82l222.657-500.976H930.77v20.02c-36.133 0.976-60.14 6.835-72.022 17.577-11.882 10.743-17.822 37.272-17.822 79.59v425.781c0 40.04 5.534 65.43 16.601 76.172 11.068 10.743 35.482 17.741 73.243 20.996V775H649.03v-20.02c37.11-1.953 61.36-8.626 72.754-20.02 11.393-11.392 17.09-37.108 17.09-77.148V233.985L498.152 775H476.18L233.992 233.984v412.11c0 45.247 5.778 74.463 17.334 87.646 11.556 13.184 36.051 20.264 73.487 21.24V775H97.762v-20.02c34.18-0.325 57.291-8.219 69.336-23.681 12.044-15.462 18.066-45.817 18.066-91.065v-403.32z"  /></svg>