<?xml version="1.0" standalone="no"?><!DOCTYPE svg PUBLIC "-//W3C//DTD SVG 1.1//EN" "http://www.w3.org/Graphics/SVG/1.1/DTD/svg11.dtd"><svg class="icon" width="400px" height="400.00px" viewBox="0 0 1024 1024" version="1.1" xmlns="http://www.w3.org/2000/svg"><path d="M652.063 522.082c0-74.22-14.405-133.789-43.213-178.71-28.81-44.923-66.488-67.384-113.038-67.384-40.69 0-72.346 15.87-94.97 47.608-22.624 31.738-33.936 76.253-33.936 133.545 0 69.987 14.404 127.115 43.213 171.386s65.837 66.407 111.084 66.407c43.946 0 76.742-14.242 98.389-42.725 21.647-28.483 32.47-71.858 32.47-130.127z m-137.208-272.95c70.964 0 127.36 20.997 169.19 62.99 41.83 41.991 62.744 98.957 62.744 170.898 0 73.242-21.891 131.754-65.674 175.537-43.783 43.782-102.783 65.673-177.002 65.673-68.685 0-124.837-21.81-168.457-65.43-43.62-43.62-65.43-99.934-65.43-168.945 0-70.963 22.705-128.824 68.116-173.584 45.41-44.759 104.247-67.138 176.513-67.138z" fill="#333333" /><path d="M652.063 522.082c0-74.22-14.405-133.789-43.213-178.71-28.81-44.923-66.488-67.384-113.038-67.384-40.69 0-72.346 15.87-94.97 47.608-22.624 31.738-33.936 76.253-33.936 133.545 0 69.987 14.404 127.115 43.213 171.386s65.837 66.407 111.084 66.407c43.946 0 76.742-14.242 98.389-42.725 21.647-28.483 32.47-71.858 32.47-130.127z m-137.208-272.95c70.964 0 127.36 20.997 169.19 62.99 41.83 41.991 62.744 98.957 62.744 170.898 0 73.242-21.891 131.754-65.674 175.537-43.783 43.782-102.783 65.673-177.002 65.673-68.685 0-124.837-21.81-168.457-65.43-43.62-43.62-65.43-99.934-65.43-168.945 0-70.963 22.705-128.824 68.116-173.584 45.41-44.759 104.247-67.138 176.513-67.138z" fill="#333333" /><path d="M293.978 158.138c5.627 0.514 8.445-0.75 8.265-3.849-0.232-3.977-1.57-4.539-8.115-4.538H294a0.25 0.25 0 0 0 0 0.5h0.128c6.308 0 7.405 0.46 7.615 4.067 0.157 2.686-2.354 3.812-7.72 3.322a0.25 0.25 0 1 0-0.045 0.498zM293 161.25h9.523a0.25 0.25 0 0 0 0-0.5H293a0.25 0.25 0 0 0 0 0.5z" fill="#666666" /></svg>