<?xml version="1.0" standalone="no"?><!DOCTYPE svg PUBLIC "-//W3C//DTD SVG 1.1//EN" "http://www.w3.org/Graphics/SVG/1.1/DTD/svg11.dtd"><svg class="icon" width="400px" height="400.00px" viewBox="0 0 1024 1024" version="1.1" xmlns="http://www.w3.org/2000/svg"><path fill="#000000" d="M512.816 158.84c-63.476 0-114.176 27.994-152.1 83.984-37.923 55.99-56.884 131.022-56.884 225.098 0 93.75 18.961 168.7 56.885 224.853 37.923 56.153 88.623 84.229 152.1 84.229 63.15 0 113.443-27.995 150.878-83.984 37.435-55.99 56.153-131.022 56.153-225.098 0-94.402-18.718-169.515-56.153-225.342-37.435-55.827-87.727-83.74-150.879-83.74zM192.992 467.922c0-104.167 29.378-187.663 88.135-250.488 58.757-62.826 135.986-94.239 231.69-94.239 95.377 0 172.444 31.494 231.2 94.483 58.757 62.988 88.135 146.402 88.135 250.244 0 103.516-29.378 186.93-88.134 250.244-58.757 63.314-135.824 94.97-231.202 94.97-95.703 0-172.932-31.493-231.689-94.482-58.757-62.988-88.135-146.565-88.135-250.732z"  /><path fill="#000000" d="M512.816 158.84c-63.476 0-114.176 27.994-152.1 83.984-37.923 55.99-56.884 131.022-56.884 225.098 0 93.75 18.961 168.7 56.885 224.853 37.923 56.153 88.623 84.229 152.1 84.229 63.15 0 113.443-27.995 150.878-83.984 37.435-55.99 56.153-131.022 56.153-225.098 0-94.402-18.718-169.515-56.153-225.342-37.435-55.827-87.727-83.74-150.879-83.74zM192.992 467.922c0-104.167 29.378-187.663 88.135-250.488 58.757-62.826 135.986-94.239 231.69-94.239 95.377 0 172.444 31.494 231.2 94.483 58.757 62.988 88.135 146.402 88.135 250.244 0 103.516-29.378 186.93-88.134 250.244-58.757 63.314-135.824 94.97-231.202 94.97-95.703 0-172.932-31.493-231.689-94.482-58.757-62.988-88.135-146.565-88.135-250.732z"  /></svg>