<?xml version="1.0" encoding="utf-8"?>
<!-- Generator: Adobe Illustrator 25.0.1, SVG Export Plug-In . SVG Version: 6.00 Build 0)  -->
<svg version="1.0" id="图层_1" xmlns="http://www.w3.org/2000/svg" xmlns:xlink="http://www.w3.org/1999/xlink" x="0px" y="0px"
	 viewBox="0 0 1920 1080" style="enable-background:new 0 0 1920 1080;" xml:space="preserve">
<style type="text/css">
	.st0{fill:#050000;}
</style>
<g>
	<path d="M817.1,372C907.5,34.7,914.9,9.7,917.1,7.3c6.3-6.5,13.5-8.7,21.8-6.5c5.6,1.5,9.9,4.9,12.9,10.2l0.8,1.3
		c2,3.6-2.3,26.6-12.9,69.2s-11.7,46.5-80.8,301.7c-69.1,255-63.3,232.2-74.9,275.4c-11.6,43.2-18.9,65-22,65.6l-1.3,0.8
		c-6.6,2.7-12.5,3.4-17.3,2c-8.3-2.2-13.2-7.6-14.7-16.2C727.9,707.6,726.8,709.3,817.1,372z"/>
	<path d="M1056.2,372c90.4-337.3,97.8-362.3,100-364.7c6.3-6.5,13.5-8.7,21.8-6.5c5.6,1.5,9.9,4.9,12.9,10.2l0.8,1.3
		c2,3.6-2.3,26.6-12.9,69.2s-11.7,46.5-80.8,301.7c-69.1,255-63.3,232.2-74.9,275.4c-11.6,43.2-18.9,65-22,65.6l-1.3,0.8
		c-6.6,2.7-12.5,3.4-17.3,2c-8.3-2.2-13.2-7.6-14.7-16.2C967,707.6,965.9,709.3,1056.2,372z"/>
</g>
<g>
	<path d="M920.6,926.5c-349.2,0-415.2-0.7-418.1-2.2c-7.9-4.4-11.9-10.7-11.9-19.4c0-5.8,2.2-10.8,6.5-15.1l1.1-1.1
		c2.9-2.9,26.3-4.7,70.2-5.4c43.9-0.8,88-0.7,352.3,0c264.2,0.8,267.7,1.1,312.4,1.1s67.7,1.5,69.1,4.3l1.1,1.1
		c4.3,5.7,6.5,11.2,6.4,16.2c0,8.6-4,14.7-11.9,18.4C1294.8,925.8,1269.8,926.5,920.6,926.5z"/>
	<path d="M920.6,1080c-349.2,0-415.2-0.7-418.1-2.2c-7.9-4.4-11.9-10.7-11.9-19.4c0-5.8,2.2-10.8,6.5-15.1l1.1-1.1
		c2.9-2.9,26.3-4.7,70.2-5.4c43.9-0.8,88-0.7,352.3,0c264.2,0.8,267.7,1.1,312.4,1.1c44.7,0,67.7,1.5,69.1,4.3l1.1,1.1
		c4.3,5.7,6.5,11.2,6.4,16.2c0,8.6-4,14.7-11.9,18.4C1294.8,1079.3,1269.8,1080,920.6,1080z"/>
</g>
</svg>
