<?xml version="1.0" standalone="no"?><!DOCTYPE svg PUBLIC "-//W3C//DTD SVG 1.1//EN" "http://www.w3.org/Graphics/SVG/1.1/DTD/svg11.dtd"><svg class="icon" width="400px" height="400.00px" viewBox="0 0 1024 1024" version="1.1" xmlns="http://www.w3.org/2000/svg"><path fill="#000000" d="M462.86 205.227c0-19.532-14.649-29.297-43.946-29.297-67.709 0-111.816 8.789-132.324 26.367-20.508 17.578-34.017 52.734-40.527 105.469h-22.95l4.883-169.922h582.031v169.922h-24.902c-5.534-52.41-17.904-87.484-37.11-105.225C728.81 184.8 682.75 175.93 609.833 175.93h-6.836c-16.276 0-26.042 1.546-29.297 4.638-3.255 3.093-4.883 11.312-4.883 24.659v476.562c0 42.644 6.43 69.092 19.288 79.346 12.858 10.254 38.818 15.869 77.88 16.845V798H366.18v-20.02c41.016-0.65 67.382-7.08 79.101-19.287 11.72-12.207 17.578-39.469 17.578-81.787v-471.68z"  /><path fill="#000000" d="M462.86 205.227c0-19.532-14.649-29.297-43.946-29.297-67.709 0-111.816 8.789-132.324 26.367-20.508 17.578-34.017 52.734-40.527 105.469h-22.95l4.883-169.922h582.031v169.922h-24.902c-5.534-52.41-17.904-87.484-37.11-105.225C728.81 184.8 682.75 175.93 609.833 175.93h-6.836c-16.276 0-26.042 1.546-29.297 4.638-3.255 3.093-4.883 11.312-4.883 24.659v476.562c0 42.644 6.43 69.092 19.288 79.346 12.858 10.254 38.818 15.869 77.88 16.845V798H366.18v-20.02c41.016-0.65 67.382-7.08 79.101-19.287 11.72-12.207 17.578-39.469 17.578-81.787v-471.68z"  /></svg>