<?xml version="1.0" encoding="utf-8"?>
<!-- Generator: Adobe Illustrator 25.0.1, SVG Export Plug-In . SVG Version: 6.00 Build 0)  -->
<svg version="1.0" id="图层_1" xmlns="http://www.w3.org/2000/svg" xmlns:xlink="http://www.w3.org/1999/xlink" x="0px" y="0px"
	 viewBox="0 0 1920 1080" style="enable-background:new 0 0 1920 1080;" xml:space="preserve">
<style type="text/css">
	.st0{fill:#050000;}
</style>
<g>
	<path d="M443.2,540c0-298.2,240.8-539.1,539.1-539.1s539.1,240.8,539.1,539.1c0,142.9-58.5,284.7-157.6,381.5
		c-104.7,101.3-239.7,157.6-381.5,157.6C685.2,1079.1,443.2,837.1,443.2,540z M982.3,1031.8c271.2,0,491.8-220.6,491.8-491.8
		c0-272.3-219.5-491.8-491.8-491.8c-271.2,0-491.8,220.6-491.8,491.8S711.1,1031.8,982.3,1031.8z M797.7,178.7
		c30.4,4.5,30.4,4.5,93.4,5.6h85.5c43.9,0,60.8-1.1,95.7-4.5c-4.5,39.4-7.9,104.7-7.9,151.9v464.8c0,50.6,2.3,82.2,7.9,120.4H928.3
		c4.5-41.6,6.8-69.8,6.8-120.4V293.5h-41.6c-33.8,0-58.5,1.1-95.7,5.6V178.7z"/>
</g>
</svg>
