<?xml version="1.0" standalone="no"?><!DOCTYPE svg PUBLIC "-//W3C//DTD SVG 1.1//EN" "http://www.w3.org/Graphics/SVG/1.1/DTD/svg11.dtd"><svg class="icon" width="400px" height="400.00px" viewBox="0 0 1024 1024" version="1.1" xmlns="http://www.w3.org/2000/svg"><path fill="#000000" d="M471.2 134.863c-29.949 2.604-49.317 5.941-58.106 10.01-8.79 4.07-13.184 10.824-13.184 20.264 0 5.534 1.14 11.23 3.418 17.09 2.279 5.859 6.836 13.834 13.672 23.925l144.043 221.68 123.047-201.66v-0.977c18.555-30.273 27.832-49.967 27.832-59.082 0-9.44-3.906-16.194-11.719-20.263-7.812-4.07-25.879-7.731-54.2-10.987v-20.02h199.22v19.044c-19.857 2.278-36.377 8.3-49.56 18.066-13.185 9.766-29.705 30.436-49.561 62.012l-163.086 264.16v200.684c0 28.32 6.103 47.851 18.31 58.593 12.207 10.743 36.377 16.602 72.51 17.578V775H388.19v-20.02h4.883c32.552 0 55.013-6.103 67.383-18.31 12.37-12.207 18.555-33.773 18.555-64.697V488.867L275.887 188.086c-12.045-18.23-25.39-31.413-40.04-39.55-14.648-8.139-33.202-12.696-55.663-13.673v-20.02h291.015v20.02z"  /><path fill="#000000" d="M471.2 134.863c-29.949 2.604-49.317 5.941-58.106 10.01-8.79 4.07-13.184 10.824-13.184 20.264 0 5.534 1.14 11.23 3.418 17.09 2.279 5.859 6.836 13.834 13.672 23.925l144.043 221.68 123.047-201.66v-0.977c18.555-30.273 27.832-49.967 27.832-59.082 0-9.44-3.906-16.194-11.719-20.263-7.812-4.07-25.879-7.731-54.2-10.987v-20.02h199.22v19.044c-19.857 2.278-36.377 8.3-49.56 18.066-13.185 9.766-29.705 30.436-49.561 62.012l-163.086 264.16v200.684c0 28.32 6.103 47.851 18.31 58.593 12.207 10.743 36.377 16.602 72.51 17.578V775H388.19v-20.02h4.883c32.552 0 55.013-6.103 67.383-18.31 12.37-12.207 18.555-33.773 18.555-64.697V488.867L275.887 188.086c-12.045-18.23-25.39-31.413-40.04-39.55-14.648-8.139-33.202-12.696-55.663-13.673v-20.02h291.015v20.02z"  /></svg>