<svg width="1920.0000000000002" height="1080" xmlns="http://www.w3.org/2000/svg">
 <!-- Created with Method Draw - http://github.com/duopixel/Method-Draw/ -->
 <g>
  <title>background</title>
  <rect fill="none" id="canvas_background" height="1082" width="1922" y="-1" x="-1"/>
  <g display="none" overflow="visible" y="0" x="0" height="100%" width="100%" id="canvasGrid">
   <rect fill="url(#gridpattern)" stroke-width="0" y="0" x="0" height="100%" width="100%"/>
  </g>
 </g>
 <g>
  <title>Layer 1</title>
  <g id="svg_19">
   <g stroke="null" id="svg_17">
    <g stroke="null" id="svg_9">
     <g stroke="null" id="svg_5">
      <path stroke="#000" id="svg_3" d="m219.999697,798.329215c58.653016,-147.48938 123.17134,141.538815 184.757002,0l0,40.549171c-76.248908,105.835359 -126.103986,-153.439967 -184.757002,0c0,-13.51639 0,-27.03278 0,-40.549171z" stroke-width="1.5" fill="#000000"/>
      <path stroke="#000" id="svg_4" d="m406.701483,794.692853c58.653009,-147.48938 123.171342,141.53881 184.756998,0l0,40.54917c-76.248907,105.83536 -126.103989,-153.43997 -184.756998,0c0,-13.51639 0,-27.03278 0,-40.54917z" stroke-width="1.5" fill="#000000"/>
     </g>
     <g stroke="null" id="svg_8">
      <path stroke="#000" id="svg_6" d="m589.513628,798.329213c58.65302,-147.48938 123.171342,141.53882 184.757008,0l0,40.54917c-76.248907,105.83536 -126.103989,-153.43996 -184.757008,0c0,-13.51639 0,-27.03278 0,-40.54917z" stroke-width="1.5" fill="#000000"/>
      <path stroke="#000" id="svg_7" d="m776.215411,794.692853c58.653009,-147.48938 123.171342,141.53881 184.756998,0l0,40.54917c-76.248907,105.83536 -126.103989,-153.43997 -184.756998,0c0,-13.51639 0,-27.03278 0,-40.54917z" stroke-width="1.5" fill="#000000"/>
     </g>
    </g>
    <g stroke="null" id="svg_16">
     <g stroke="null" id="svg_12">
      <path stroke="#000" id="svg_10" d="m959.027567,798.329213c58.65302,-147.48938 123.171342,141.53882 184.757008,0l0,40.54917c-76.248907,105.83536 -126.103989,-153.43996 -184.757008,0c0,-13.51639 0,-27.03278 0,-40.54917z" stroke-width="1.5" fill="#000000"/>
      <path stroke="#000" id="svg_11" d="m1145.72935,794.692853c58.653009,-147.48938 123.171342,141.53881 184.756998,0l0,40.54917c-76.248907,105.83536 -126.103989,-153.43997 -184.756998,0c0,-13.51639 0,-27.03278 0,-40.54917z" stroke-width="1.5" fill="#000000"/>
     </g>
     <g stroke="null" id="svg_15">
      <path stroke="#000" id="svg_13" d="m1328.541498,798.329213c58.65302,-147.48938 123.171342,141.53882 184.757008,0l0,40.54917c-76.248907,105.83536 -126.103989,-153.43996 -184.757008,0c0,-13.51639 0,-27.03278 0,-40.54917z" stroke-width="1.5" fill="#000000"/>
      <path stroke="#000" id="svg_14" d="m1515.243281,794.692853c58.653009,-147.48938 123.171342,141.53881 184.756998,0l0,40.54917c-76.248907,105.83536 -126.103989,-153.43997 -184.756998,0c0,-13.51639 0,-27.03278 0,-40.54917z" stroke-width="1.5" fill="#000000"/>
     </g>
    </g>
   </g>
   <text stroke="#000" transform="matrix(13.570749332889251,0,0,14.13026945517579,-9387.997878270586,-5287.600593969198) " xml:space="preserve" text-anchor="start" font-family="Helvetica, Arial, sans-serif" font-size="30" id="svg_18" y="416.581612" x="717.49237" stroke-opacity="null" stroke-width="0" fill="#000000">波浪线</text>
  </g>
 </g>
</svg>