<?xml version="1.0" standalone="no"?><!DOCTYPE svg PUBLIC "-//W3C//DTD SVG 1.1//EN" "http://www.w3.org/Graphics/SVG/1.1/DTD/svg11.dtd"><svg class="icon" width="400px" height="400.00px" viewBox="0 0 1024 1024" version="1.1" xmlns="http://www.w3.org/2000/svg"><path fill="#000000" d="M345.992 693.809h314.942c32.877 0 55.338-5.941 67.382-17.823 12.045-11.881 19.206-34.586 21.485-68.115h21.972V790H234.176V607.871h21.972c2.28 33.529 9.44 56.234 21.485 68.115 12.044 11.882 34.83 17.823 68.36 17.823z m107.91-279.786h99.121c36.133 0 59.652-4.313 70.557-12.939 10.905-8.626 17.009-25.31 18.31-50.049h21.973v213.867h-21.972c-1.302-26.367-7.731-44.108-19.287-53.222-11.557-9.115-34.75-13.672-69.58-13.672h-99.122c-34.505 0-57.617 4.557-69.336 13.672-11.718 9.114-18.229 26.855-19.53 53.222h-22.95V351.035h22.95c1.301 24.74 7.405 41.423 18.31 50.049 10.905 8.626 34.423 12.94 70.556 12.94z m314.942-103.027H746.87c-2.279-33.854-9.196-56.64-20.752-68.36-11.556-11.718-33.61-17.577-66.162-17.577H347.945c-33.529 0-56.233 6.022-68.115 18.066-11.881 12.044-18.799 34.668-20.752 67.871h-21.973V129.844h531.739v181.152z"  /><path fill="#000000" d="M345.992 693.809h314.942c32.877 0 55.338-5.941 67.382-17.823 12.045-11.881 19.206-34.586 21.485-68.115h21.972V790H234.176V607.871h21.972c2.28 33.529 9.44 56.234 21.485 68.115 12.044 11.882 34.83 17.823 68.36 17.823z m107.91-279.786h99.121c36.133 0 59.652-4.313 70.557-12.939 10.905-8.626 17.009-25.31 18.31-50.049h21.973v213.867h-21.972c-1.302-26.367-7.731-44.108-19.287-53.222-11.557-9.115-34.75-13.672-69.58-13.672h-99.122c-34.505 0-57.617 4.557-69.336 13.672-11.718 9.114-18.229 26.855-19.53 53.222h-22.95V351.035h22.95c1.301 24.74 7.405 41.423 18.31 50.049 10.905 8.626 34.423 12.94 70.556 12.94z m314.942-103.027H746.87c-2.279-33.854-9.196-56.64-20.752-68.36-11.556-11.718-33.61-17.577-66.162-17.577H347.945c-33.529 0-56.233 6.022-68.115 18.066-11.881 12.044-18.799 34.668-20.752 67.871h-21.973V129.844h531.739v181.152z"  /></svg>