<?xml version="1.0" standalone="no"?><!DOCTYPE svg PUBLIC "-//W3C//DTD SVG 1.1//EN" "http://www.w3.org/Graphics/SVG/1.1/DTD/svg11.dtd"><svg class="icon" width="400px" height="400.00px" viewBox="0 0 1024 1024" version="1.1" xmlns="http://www.w3.org/2000/svg"><path fill="#000000" d="M261.031 303.184h-25.879l11.72-173.34h501.952l-403.808 619.14h209.96c66.733 0 113.2-9.928 139.405-29.785 26.204-19.857 45.817-57.617 58.838-113.281h25.879L748.824 790H199.02l402.832-618.164H422.164c-60.547 0-100.749 8.87-120.605 26.611-19.857 17.741-33.366 52.653-40.528 104.737z"  /><path fill="#000000" d="M261.031 303.184h-25.879l11.72-173.34h501.952l-403.808 619.14h209.96c66.733 0 113.2-9.928 139.405-29.785 26.204-19.857 45.817-57.617 58.838-113.281h25.879L748.824 790H199.02l402.832-618.164H422.164c-60.547 0-100.749 8.87-120.605 26.611-19.857 17.741-33.366 52.653-40.528 104.737z"  /></svg>